<?xml version="1.0" encoding="iso-8859-1"?>
<!-- Generator: Adobe Illustrator 16.0.0, SVG Export Plug-In . SVG Version: 6.00 Build 0)  -->
<!DOCTYPE svg PUBLIC "-//W3C//DTD SVG 1.1//EN" "http://www.w3.org/Graphics/SVG/1.1/DTD/svg11.dtd">
<svg version="1.1" id="Capa_1" xmlns="http://www.w3.org/2000/svg" xmlns:xlink="http://www.w3.org/1999/xlink" x="0px" y="0px"
	 width="595.121px" height="595.121px" viewBox="0 0 595.121 595.121" style="enable-background:new 0 0 595.121 595.121;"
	 xml:space="preserve">
<g>
	<g>
		<path d="M495.39,288.544h-28.751V169.579c0-45.163-17.587-87.622-49.521-119.557S342.723,0.5,297.561,0.5
			c-45.163,0-87.622,17.588-119.557,49.522c-31.935,31.934-49.522,74.394-49.522,119.557v28.78c0,11.83,9.59,21.42,21.42,21.42
			c3.309,0,6.442-0.751,9.24-2.091c7.204-3.45,12.18-10.808,12.18-19.329v-28.78c0-69.608,56.63-126.238,126.239-126.238
			c69.607,0,126.237,56.63,126.237,126.238v118.966H193.014H99.732c-32.059,0-58.14,26.083-58.14,58.141V536.48
			c0,32.059,26.082,58.141,58.14,58.141H495.39c32.058,0,58.14-26.082,58.14-58.141V346.686
			C553.529,314.627,527.447,288.544,495.39,288.544z M510.689,536.48c0,8.449-6.851,15.301-15.3,15.301H99.732
			c-8.45,0-15.3-6.852-15.3-15.301V346.686c0-8.451,6.85-15.301,15.3-15.301h113.76H423.8h21.42h21.42h28.75
			c8.449,0,15.3,6.85,15.3,15.301V536.48z"/>
		<path d="M495.39,595.121H99.732c-32.334,0-58.64-26.306-58.64-58.641V346.686c0-32.335,26.306-58.641,58.64-58.641h323.566
			V169.579c0-69.332-56.405-125.738-125.737-125.738c-69.333,0-125.739,56.406-125.739,125.738v28.78
			c0,8.39-4.893,16.154-12.464,19.78c-2.965,1.42-6.147,2.14-9.456,2.14c-12.087,0-21.92-9.833-21.92-21.92v-28.78
			c0-45.297,17.639-87.882,49.668-119.91C209.68,17.639,252.265,0,297.561,0s87.881,17.639,119.91,49.668
			c32.029,32.029,49.668,74.614,49.668,119.91v118.466h28.251c32.334,0,58.64,26.306,58.64,58.641V536.48
			C554.029,568.815,527.724,595.121,495.39,595.121z M99.732,289.044c-31.783,0-57.64,25.858-57.64,57.641V536.48
			c0,31.783,25.857,57.641,57.64,57.641H495.39c31.782,0,57.64-25.857,57.64-57.641V346.686c0-31.783-25.857-57.641-57.64-57.641
			h-29.251V169.579c0-45.029-17.535-87.363-49.375-119.203C384.924,18.535,342.59,1,297.561,1
			c-45.028,0-87.362,17.535-119.203,49.375c-31.84,31.839-49.375,74.173-49.375,119.203v28.78c0,11.535,9.385,20.92,20.92,20.92
			c3.158,0,6.194-0.687,9.024-2.042c7.227-3.461,11.896-10.871,11.896-18.878v-28.78c0-69.883,56.855-126.738,126.739-126.738
			c69.883,0,126.737,56.854,126.737,126.738v119.466H99.732z M495.39,552.281H99.732c-8.712,0-15.8-7.088-15.8-15.801V346.686
			c0-8.713,7.088-15.801,15.8-15.801H495.39c8.712,0,15.8,7.088,15.8,15.801V536.48C511.189,545.193,504.102,552.281,495.39,552.281
			z M99.732,331.885c-8.161,0-14.8,6.64-14.8,14.801V536.48c0,8.161,6.639,14.801,14.8,14.801H495.39c8.161,0,14.8-6.64,14.8-14.801
			V346.686c0-8.161-6.639-14.801-14.8-14.801H99.732z"/>
	</g>
</g>
<g>
</g>
<g>
</g>
<g>
</g>
<g>
</g>
<g>
</g>
<g>
</g>
<g>
</g>
<g>
</g>
<g>
</g>
<g>
</g>
<g>
</g>
<g>
</g>
<g>
</g>
<g>
</g>
<g>
</g>
</svg>
